<svg width="826" height="150" viewBox="0 0 826 150" fill="none" xmlns="http://www.w3.org/2000/svg">
<rect width="826" height="150" fill="white"/>
<path d="M157.313 96.3181C156.564 97.9224 155.437 99.2203 153.935 100.212C152.432 101.2 150.795 101.921 149.026 102.375C147.254 102.829 145.537 103.057 143.873 103.057C139.364 103.057 135.889 101.988 133.449 99.8512C131.008 97.711 129.789 94.9268 129.789 91.5002C129.789 89.3075 130.351 87.2591 131.478 85.3582C132.603 83.4573 134.292 81.9201 136.545 80.7435C138.801 79.5685 141.566 78.9802 144.839 78.9802C146.609 78.9802 148.378 79.1146 150.149 79.3801C151.919 79.6472 153.582 80.1011 155.138 80.7435V76.9744C155.138 74.8867 154.292 73.3348 152.601 72.3204C150.913 71.3028 148.943 70.7931 146.692 70.7931C144.221 70.7931 141.924 71.0471 139.805 71.5535C137.688 72.0615 135.986 72.5547 134.698 73.0349L132.766 65.9752C134.964 64.8527 137.297 64.0513 139.765 63.5696C142.236 63.0845 144.786 62.842 147.415 62.842C150.741 62.842 153.812 63.2451 156.63 64.0481C159.446 64.8527 161.699 66.2702 163.386 68.3022C165.077 70.3343 165.923 73.225 165.923 76.9744V91.0217C165.923 92.6784 166.069 93.9485 166.363 94.8301C166.661 95.7134 167.72 96.1017 169.544 95.9969L169.63 102.257C167.697 102.685 165.778 102.857 163.872 102.775C161.966 102.696 160.396 102.177 159.16 101.215C157.928 100.249 157.313 98.6172 157.313 96.3181ZM155.138 87.3247C154.278 86.897 153.097 86.5495 151.595 86.2824C150.097 86.017 148.569 85.8826 147.014 85.8826C145.025 85.8826 143.507 86.3382 142.46 87.246C141.417 88.1555 140.896 89.36 140.896 90.8578C140.896 91.8197 141.325 92.7161 142.184 93.5453C143.042 94.3762 144.356 94.7907 146.127 94.7907C147.358 94.7907 148.644 94.5384 149.985 94.0304C151.329 93.5191 152.497 92.7161 153.488 91.6182C154.482 90.5218 155.033 89.0912 155.138 87.3247Z" fill="#1565C0"/>
<path d="M213.894 63.563V90.7005C213.894 92.5195 214.067 93.7747 214.414 94.4696C214.764 95.1644 215.797 95.4593 217.516 95.3545L217.594 102.178C216.254 102.496 214.764 102.737 213.125 102.899C211.491 103.06 209.935 103.006 208.459 102.735C206.982 102.468 205.774 101.868 204.838 100.933C203.9 99.9987 203.431 98.5926 203.431 96.7179C202.73 98.2173 201.696 99.4366 200.329 100.376C198.962 101.311 197.459 101.991 195.821 102.414C194.186 102.842 192.59 103.057 191.036 103.057C187.333 103.057 184.434 102.28 182.341 100.73C180.251 99.1793 178.775 97.1046 177.918 94.5089C177.059 91.9131 176.63 89.0126 176.63 85.8039V63.563H187.973V85.8039C187.973 88.9077 188.591 91.0872 189.827 92.3458C191.062 93.601 192.673 94.227 194.657 94.227C196.908 94.2844 198.8 93.5109 200.329 91.9066C201.857 90.299 202.623 88.1834 202.623 85.5614V63.563L213.894 63.563Z" fill="#1565C0"/>
<path d="M240.529 63.6482H253.168V72.0779H240.529V86.4463C240.529 89.1207 241.173 91.02 242.461 92.1426C243.75 93.2667 245.399 93.801 247.41 93.7485C249.425 93.6961 251.505 93.2946 253.647 92.5424L254.699 101.051C251.368 101.96 248.187 102.467 245.156 102.571C242.128 102.68 239.433 102.229 237.072 101.215C234.709 100.197 232.859 98.5107 231.519 96.1542C230.178 93.7993 229.508 90.6415 229.508 86.6823V72.0779L222.179 71.3503V63.6482H230.309L231.519 51.6068H240.529L240.529 63.6482Z" fill="#1565C0"/>
<path d="M288.74 102.257V79.8586C288.845 77.1317 288.201 75.0866 286.808 73.7232C285.415 72.3565 283.67 71.6715 281.576 71.6715C279.324 71.619 277.378 72.3433 275.74 73.8411C274.105 75.3406 273.289 77.4267 273.289 80.1011V102.257H261.939V43.6556H273.289V67.7385C274.52 66.026 276.141 64.7691 278.152 63.9694C280.167 63.1664 282.382 62.7633 284.797 62.7633C288.499 62.7633 291.463 63.5007 293.689 64.9723C295.914 66.4406 297.537 68.4595 298.559 71.0291C299.58 73.5986 300.091 76.5418 300.091 79.8586V102.257H288.74Z" fill="#1565C0"/>
<path d="M311.837 102.713V46.1239H322.3V80.0785H322.543L338.08 63.0553H350.554L330.995 84.1688L331.074 80.2358L351.842 102.713H339.204L322.543 85.211H322.3V102.713L311.837 102.713Z" fill="#B00020"/>
<path d="M355.781 54.8682V44.5966H367.611V54.8682H355.781ZM356.504 102.713V63.0553H366.967V102.713H356.504Z" fill="#B00020"/>
<path d="M396.988 103.512C391.567 103.512 387.53 102.162 384.875 99.4615C382.22 96.7608 380.892 92.841 380.892 87.7019V71.1638H373.249V63.0553H381.215V51.5776H391.356V63.0553H404.152V71.1638H391.356V87.2234C391.356 89.7896 391.944 91.7004 393.123 92.9589C394.306 94.2175 396.157 94.8468 398.677 94.8468C399.592 94.8468 400.493 94.7534 401.378 94.5649C402.262 94.3781 403.161 94.1503 404.073 93.8832L405.604 101.67C404.474 102.26 403.143 102.714 401.615 103.034C400.085 103.352 398.542 103.512 396.988 103.512Z" fill="#B00020"/>
<path d="M121.333 37H130.508L102.26 112.454H93L121.333 37Z" fill="#FF7043"/>
<path d="M484.634 37.3662H477.232V44.9296H484.634V37.3662Z" fill="black"/>
<path d="M492.037 44.9296H484.634V52.493H492.037V44.9296Z" fill="white"/>
<path d="M499.439 75.1831H492.037V82.7465H499.439V75.1831Z" fill="white"/>
<path d="M506.841 67.6197H499.439V75.1831H506.841V67.6197Z" fill="white"/>
<path d="M506.841 82.7465H499.439V90.3099H506.841V82.7465Z" fill="white"/>
<path d="M506.841 90.3099H499.439V97.8733H506.841V90.3099Z" fill="white"/>
<path d="M506.841 97.8733H499.439V105.437H506.841V97.8733Z" fill="white"/>
<path d="M514.243 67.6197H506.841V75.1831H514.243V67.6197Z" fill="white"/>
<path d="M521.645 75.1831H514.243V82.7465H521.645V75.1831Z" fill="white"/>
<path d="M521.645 82.7465H514.243V90.3099H521.645V82.7465Z" fill="white"/>
<path d="M521.645 90.3099H514.243V97.8733H521.645V90.3099Z" fill="white"/>
<path d="M521.645 97.8733H514.243V105.437H521.645V97.8733Z" fill="white"/>
<path d="M492.037 52.493H484.634V60.0564H492.037V52.493Z" fill="white"/>
<path d="M492.037 60.0564H484.634V67.6197H492.037V60.0564Z" fill="white"/>
<path d="M492.037 67.6197H484.634V75.1831H492.037V67.6197Z" fill="white"/>
<path d="M492.037 75.1831H484.634V82.7465H492.037V75.1831Z" fill="white"/>
<path d="M492.037 82.7465H484.634V90.3099H492.037V82.7465Z" fill="white"/>
<path d="M492.037 90.3099H484.634V97.8733H492.037V90.3099Z" fill="white"/>
<path d="M492.037 97.8733H484.634V105.437H492.037V97.8733Z" fill="white"/>
<path d="M484.634 44.9296H477.232V52.493H484.634V44.9296Z" fill="black"/>
<path d="M484.634 52.493H477.232V60.0564H484.634V52.493Z" fill="black"/>
<path d="M484.634 60.0564H477.232V67.6197H484.634V60.0564Z" fill="black"/>
<path d="M484.634 67.6197H477.232V75.1831H484.634V67.6197Z" fill="black"/>
<path d="M484.634 75.1831H477.232V82.7465H484.634V75.1831Z" fill="black"/>
<path d="M484.634 82.7465H477.232V90.3099H484.634V82.7465Z" fill="black"/>
<path d="M484.634 90.3099H477.232V97.8733H484.634V90.3099Z" fill="black"/>
<path d="M484.634 97.8733H477.232V105.437H484.634V97.8733Z" fill="black"/>
<path d="M484.634 105.437H477.232V113H484.634V105.437Z" fill="black"/>
<path d="M492.037 105.437H484.634V113H492.037V105.437Z" fill="black"/>
<path d="M499.439 105.437H492.037V113H499.439V105.437Z" fill="black"/>
<path d="M506.841 105.437H499.439V113H506.841V105.437Z" fill="black"/>
<path d="M514.243 105.437H506.841V113H514.243V105.437Z" fill="black"/>
<path d="M521.645 105.437H514.243V113H521.645V105.437Z" fill="black"/>
<path d="M529.047 105.437H521.645V113H529.047V105.437Z" fill="black"/>
<path d="M529.047 97.8733H521.645V105.437H529.047V97.8733Z" fill="black"/>
<path d="M529.047 90.3099L521.645 90.3099V97.8733H529.047V90.3099Z" fill="black"/>
<path d="M529.047 82.7465H521.645V90.3099L529.047 90.3099V82.7465Z" fill="black"/>
<path d="M529.047 75.1831H521.645V82.7465H529.047V75.1831Z" fill="black"/>
<path d="M529.047 67.6197H521.645V75.1831H529.047V67.6197Z" fill="black"/>
<path d="M529.047 60.0564H521.645V67.6197H529.047V60.0564Z" fill="black"/>
<path d="M529.047 52.493H521.645V60.0564H529.047V52.493Z" fill="black"/>
<path d="M499.439 44.9296H492.037V52.493H499.439V44.9296Z" fill="black"/>
<path d="M506.841 44.9296H499.439V52.493H506.841V44.9296Z" fill="black"/>
<path d="M514.243 44.9296H506.841V52.493H514.243V44.9296Z" fill="black"/>
<path d="M521.645 44.9296H514.243V52.493H521.645V44.9296Z" fill="black"/>
<path d="M521.645 52.493H514.243V60.0564H521.645V52.493Z" fill="black"/>
<path d="M521.645 60.0564H514.243V67.6197H521.645V60.0564Z" fill="black"/>
<path d="M521.645 67.6197H514.243V75.1831H521.645V67.6197Z" fill="black"/>
<path d="M506.841 75.1831H499.439V82.7465H506.841V75.1831Z" fill="black"/>
<path d="M514.243 75.1831H506.841V82.7465H514.243V75.1831Z" fill="black"/>
<path d="M514.243 82.7465H506.841V90.3099H514.243V82.7465Z" fill="black"/>
<path d="M514.243 90.3099H506.841V97.8733H514.243V90.3099Z" fill="black"/>
<path d="M514.243 97.8733H506.841V105.437H514.243V97.8733Z" fill="black"/>
<path d="M499.439 82.7465H492.037V90.3099H499.439V82.7465Z" fill="black"/>
<path d="M499.439 90.3099H492.037V97.8733H499.439V90.3099Z" fill="black"/>
<path d="M499.439 97.8733H492.037V105.437H499.439V97.8733Z" fill="black"/>
<path d="M499.439 67.6197H492.037V75.1831H499.439V67.6197Z" fill="black"/>
<path d="M499.439 60.0564H492.037V67.6197H499.439V60.0564Z" fill="black"/>
<path d="M499.439 52.493H492.037V60.0564H499.439V52.493Z" fill="black"/>
<path d="M506.841 52.493H499.439V60.0564H506.841V52.493Z" fill="black"/>
<path d="M514.243 52.493H506.841V60.0564H514.243V52.493Z" fill="black"/>
<path d="M506.841 60.0564H499.439V67.6197H506.841V60.0564Z" fill="black"/>
<path d="M514.243 60.0564H506.841V67.6197H514.243V60.0564Z" fill="black"/>
<path d="M529.047 44.9296H521.645V52.493H529.047V44.9296Z" fill="black"/>
<path d="M529.047 37.3662H521.645V44.9296H529.047V37.3662Z" fill="black"/>
<path d="M492.037 37.3662H484.634V44.9296H492.037V37.3662Z" fill="black"/>
<path d="M499.439 37.3662H492.037V44.9296H499.439V37.3662Z" fill="black"/>
<path d="M506.841 37.3662H499.439V44.9296H506.841V37.3662Z" fill="black"/>
<path d="M514.243 37.3662H506.841V44.9296H514.243V37.3662Z" fill="black"/>
<path d="M521.645 37.3662H514.243V44.9296H521.645V37.3662Z" fill="black"/>
<path d="M541.241 86.108V46.9923H548.288V63.5515H566.313V46.9923H573.379V86.108H566.313V69.4915H548.288V86.108H541.241Z" fill="black"/>
<path d="M580.204 86.108V56.7712H587.08V86.108H580.204ZM583.661 52.6076C582.572 52.6076 581.635 52.2447 580.85 51.5189C580.065 50.7804 579.672 49.8954 579.672 48.8641C579.672 47.82 580.065 46.935 580.85 46.2093C581.635 45.4707 582.572 45.1015 583.661 45.1015C584.763 45.1015 585.7 45.4707 586.472 46.2093C587.257 46.935 587.65 47.82 587.65 48.8641C587.65 49.8954 587.257 50.7804 586.472 51.5189C585.7 52.2447 584.763 52.6076 583.661 52.6076Z" fill="black"/>
<path d="M592.21 52.9323V46.9923H623.246V52.9323H611.223V86.108H604.233V52.9323H592.21Z" fill="black"/>
<path d="M628.694 86.108V46.9923H653.994V52.9323H635.741V63.5515H652.683V69.4915H635.741V80.1681H654.146V86.108H628.694Z" fill="black"/>
<path d="M693.944 60.1901H686.841C686.638 59.0186 686.264 57.9809 685.72 57.0768C685.175 56.1601 684.498 55.3834 683.688 54.7467C682.877 54.1101 681.953 53.6326 680.914 53.3142C679.889 52.9832 678.781 52.8177 677.591 52.8177C675.476 52.8177 673.602 53.3524 671.968 54.422C670.335 55.4789 669.056 57.0323 668.132 59.0823C667.207 61.1196 666.745 63.6088 666.745 66.5502C666.745 69.5424 667.207 72.0635 668.132 74.1135C669.069 76.1508 670.348 77.6915 671.968 78.7356C673.602 79.767 675.47 80.2827 677.572 80.2827C678.737 80.2827 679.825 80.1299 680.838 79.8243C681.864 79.5059 682.782 79.0412 683.593 78.43C684.416 77.8188 685.106 77.0676 685.663 76.1763C686.233 75.285 686.625 74.2663 686.841 73.1204L693.944 73.1586C693.678 75.0176 693.102 76.762 692.216 78.3918C691.342 80.0216 690.196 81.4605 688.778 82.7083C687.36 83.9434 685.701 84.9111 683.801 85.6114C681.902 86.299 679.794 86.6428 677.477 86.6428C674.058 86.6428 671.006 85.847 668.322 84.2553C665.637 82.6637 663.522 80.3654 661.978 77.3604C660.433 74.3555 659.66 70.752 659.66 66.5502C659.66 62.3356 660.439 58.7321 661.997 55.7399C663.554 52.7349 665.675 50.4366 668.36 48.845C671.044 47.2534 674.083 46.4575 677.477 46.4575C679.642 46.4575 681.655 46.7631 683.517 47.3743C685.378 47.9855 687.037 48.8832 688.493 50.0673C689.949 51.2388 691.146 52.6776 692.083 54.3838C693.032 56.0773 693.653 58.0127 693.944 60.1901Z" fill="black"/>
<path d="M699.862 86.108V46.9923H706.909V63.5515H724.934V46.9923H732V86.108H724.934V69.4915H706.909V86.108H699.862Z" fill="black"/>
<path d="M553.837 94.877H551.173C551.097 94.4377 550.957 94.0486 550.753 93.7096C550.548 93.3658 550.294 93.0745 549.99 92.8358C549.686 92.597 549.34 92.418 548.95 92.2986C548.566 92.1744 548.15 92.1124 547.704 92.1124C546.911 92.1124 546.208 92.3129 545.596 92.714C544.983 93.1103 544.504 93.6928 544.157 94.4616C543.81 95.2256 543.637 96.1591 543.637 97.2621C543.637 98.3842 543.81 99.3296 544.157 100.098C544.508 100.862 544.988 101.44 545.596 101.832C546.208 102.218 546.909 102.412 547.697 102.412C548.134 102.412 548.542 102.354 548.922 102.24C549.307 102.12 549.651 101.946 549.955 101.717C550.263 101.488 550.522 101.206 550.731 100.872C550.945 100.538 551.092 100.156 551.173 99.7259L553.837 99.7402C553.737 100.437 553.521 101.092 553.188 101.703C552.861 102.314 552.431 102.853 551.899 103.321C551.367 103.785 550.745 104.147 550.033 104.41C549.321 104.668 548.53 104.797 547.661 104.797C546.379 104.797 545.235 104.498 544.228 103.902C543.221 103.305 542.428 102.443 541.849 101.316C541.27 100.189 540.98 98.8378 540.98 97.2621C540.98 95.6816 541.272 94.3303 541.856 93.2082C542.44 92.0813 543.236 91.2195 544.242 90.6226C545.249 90.0258 546.389 89.7273 547.661 89.7273C548.473 89.7273 549.228 89.8419 549.926 90.0711C550.624 90.3003 551.246 90.6369 551.792 91.081C552.339 91.5203 552.787 92.0599 553.139 92.6997C553.495 93.3347 553.727 94.0605 553.837 94.877Z" fill="black"/>
<path d="M560.714 104.811C559.646 104.811 558.72 104.575 557.936 104.102C557.153 103.629 556.545 102.968 556.113 102.118C555.686 101.268 555.472 100.275 555.472 99.1386C555.472 98.0022 555.686 97.0066 556.113 96.1519C556.545 95.2972 557.153 94.6335 557.936 94.1608C558.72 93.6881 559.646 93.4517 560.714 93.4517C561.783 93.4517 562.709 93.6881 563.492 94.1608C564.276 94.6335 564.881 95.2972 565.308 96.1519C565.74 97.0066 565.957 98.0022 565.957 99.1386C565.957 100.275 565.74 101.268 565.308 102.118C564.881 102.968 564.276 103.629 563.492 104.102C562.709 104.575 561.783 104.811 560.714 104.811ZM560.728 102.734C561.308 102.734 561.792 102.574 562.181 102.254C562.571 101.929 562.861 101.495 563.05 100.951C563.245 100.406 563.343 99.7999 563.343 99.1314C563.343 98.4582 563.245 97.8494 563.05 97.305C562.861 96.7559 562.571 96.319 562.181 95.9943C561.792 95.6697 561.308 95.5073 560.728 95.5073C560.135 95.5073 559.641 95.6697 559.247 95.9943C558.858 96.319 558.566 96.7559 558.371 97.305C558.181 97.8494 558.086 98.4582 558.086 99.1314C558.086 99.7999 558.181 100.406 558.371 100.951C558.566 101.495 558.858 101.929 559.247 102.254C559.641 102.574 560.135 102.734 560.728 102.734Z" fill="black"/>
<path d="M567.944 104.596V93.595H570.444V95.4285H570.558C570.758 94.7935 571.1 94.304 571.584 93.9602C572.073 93.6117 572.631 93.4374 573.258 93.4374C573.4 93.4374 573.559 93.4446 573.735 93.4589C573.916 93.4684 574.065 93.4851 574.184 93.509V95.8941C574.075 95.8559 573.901 95.8224 573.664 95.7938C573.431 95.7604 573.206 95.7437 572.987 95.7437C572.517 95.7437 572.095 95.8463 571.719 96.0516C571.349 96.2522 571.057 96.5315 570.843 96.8896C570.63 97.2477 570.523 97.6608 570.523 98.1287V104.596H567.944Z" fill="black"/>
<path d="M575.696 108.722V93.595H578.232V95.4142H578.382C578.515 95.1468 578.702 94.8627 578.944 94.5619C579.186 94.2563 579.514 93.9961 579.927 93.7812C580.34 93.5615 580.867 93.4517 581.508 93.4517C582.354 93.4517 583.116 93.669 583.795 94.1035C584.479 94.5332 585.02 95.1707 585.419 96.0158C585.822 96.8562 586.024 97.8876 586.024 99.1099C586.024 100.318 585.827 101.345 585.433 102.19C585.039 103.035 584.502 103.679 583.823 104.124C583.144 104.568 582.375 104.79 581.516 104.79C580.889 104.79 580.369 104.685 579.956 104.474C579.543 104.264 579.21 104.011 578.958 103.715C578.712 103.414 578.519 103.13 578.382 102.863H578.275V108.722H575.696ZM578.225 99.0956C578.225 99.8071 578.325 100.43 578.524 100.965C578.728 101.5 579.02 101.918 579.4 102.218C579.785 102.514 580.25 102.662 580.796 102.662C581.366 102.662 581.843 102.51 582.228 102.204C582.612 101.894 582.902 101.471 583.097 100.936C583.296 100.397 583.396 99.7832 583.396 99.0956C583.396 98.4128 583.299 97.8064 583.104 97.2764C582.909 96.7464 582.62 96.331 582.235 96.0301C581.85 95.7293 581.371 95.5789 580.796 95.5789C580.245 95.5789 579.778 95.7246 579.393 96.0158C579.008 96.3071 578.716 96.7154 578.517 97.2406C578.322 97.7658 578.225 98.3842 578.225 99.0956Z" fill="black"/>
<path d="M592.804 104.811C591.735 104.811 590.81 104.575 590.026 104.102C589.243 103.629 588.635 102.968 588.203 102.118C587.775 101.268 587.562 100.275 587.562 99.1386C587.562 98.0022 587.775 97.0066 588.203 96.1519C588.635 95.2972 589.243 94.6335 590.026 94.1608C590.81 93.6881 591.735 93.4517 592.804 93.4517C593.872 93.4517 594.798 93.6881 595.582 94.1608C596.365 94.6335 596.971 95.2972 597.398 96.1519C597.83 97.0066 598.046 98.0022 598.046 99.1386C598.046 100.275 597.83 101.268 597.398 102.118C596.971 102.968 596.365 103.629 595.582 104.102C594.798 104.575 593.872 104.811 592.804 104.811ZM592.818 102.734C593.397 102.734 593.882 102.574 594.271 102.254C594.66 101.929 594.95 101.495 595.14 100.951C595.335 100.406 595.432 99.7999 595.432 99.1314C595.432 98.4582 595.335 97.8494 595.14 97.305C594.95 96.7559 594.66 96.319 594.271 95.9943C593.882 95.6697 593.397 95.5073 592.818 95.5073C592.224 95.5073 591.731 95.6697 591.337 95.9943C590.947 96.319 590.655 96.7559 590.46 97.305C590.271 97.8494 590.176 98.4582 590.176 99.1314C590.176 99.7999 590.271 100.406 590.46 100.951C590.655 101.495 590.947 101.929 591.337 102.254C591.731 102.574 592.224 102.734 592.818 102.734Z" fill="black"/>
<path d="M600.034 104.596V93.595H602.534V95.4285H602.648C602.847 94.7935 603.189 94.304 603.674 93.9602C604.163 93.6117 604.721 93.4374 605.348 93.4374C605.49 93.4374 605.649 93.4446 605.825 93.4589C606.005 93.4684 606.155 93.4851 606.273 93.509V95.8941C606.164 95.8559 605.991 95.8224 605.754 95.7938C605.521 95.7604 605.295 95.7437 605.077 95.7437C604.607 95.7437 604.184 95.8463 603.809 96.0516C603.439 96.2522 603.147 96.5315 602.933 96.8896C602.719 97.2477 602.612 97.6608 602.612 98.1287V104.596H600.034Z" fill="black"/>
<path d="M610.738 104.818C610.045 104.818 609.421 104.694 608.865 104.446C608.314 104.193 607.877 103.82 607.554 103.329C607.236 102.837 607.077 102.23 607.077 101.509C607.077 100.889 607.191 100.375 607.419 99.9694C607.647 99.5635 607.958 99.2389 608.352 98.9953C608.746 98.7518 609.19 98.568 609.684 98.4438C610.183 98.3149 610.698 98.2218 611.23 98.1645C611.871 98.0977 612.391 98.038 612.79 97.9855C613.188 97.9282 613.478 97.8422 613.659 97.7276C613.844 97.6082 613.936 97.4244 613.936 97.1761V97.1331C613.936 96.5936 613.777 96.1758 613.459 95.8797C613.141 95.5837 612.683 95.4357 612.084 95.4357C611.453 95.4357 610.952 95.5742 610.582 95.8511C610.216 96.128 609.969 96.4551 609.841 96.8323L607.433 96.4885C607.623 95.8201 607.937 95.2614 608.373 94.8126C608.81 94.359 609.345 94.0199 609.976 93.7955C610.608 93.5663 611.306 93.4517 612.07 93.4517C612.597 93.4517 613.122 93.5138 613.644 93.6379C614.167 93.7621 614.644 93.9674 615.076 94.2539C615.508 94.5356 615.855 94.92 616.116 95.407C616.382 95.8941 616.515 96.5029 616.515 97.2334V104.596H614.036V103.085H613.951C613.794 103.391 613.573 103.677 613.288 103.944C613.008 104.207 612.654 104.42 612.227 104.582C611.804 104.739 611.308 104.818 610.738 104.818ZM611.408 102.913C611.925 102.913 612.374 102.81 612.754 102.605C613.134 102.395 613.426 102.118 613.63 101.774C613.839 101.431 613.943 101.056 613.943 100.65V99.3534C613.863 99.4203 613.725 99.4824 613.53 99.5397C613.34 99.597 613.127 99.6471 612.889 99.6901C612.652 99.7331 612.417 99.7713 612.184 99.8047C611.951 99.8381 611.75 99.8667 611.579 99.8906C611.194 99.9431 610.85 100.029 610.546 100.148C610.242 100.268 610.002 100.435 609.827 100.65C609.651 100.86 609.563 101.132 609.563 101.466C609.563 101.944 609.736 102.304 610.083 102.548C610.43 102.791 610.871 102.913 611.408 102.913Z" fill="black"/>
<path d="M624.37 93.595V95.6004H618.081V93.595H624.37ZM619.633 90.9593H622.212V101.287C622.212 101.636 622.264 101.903 622.368 102.089C622.478 102.271 622.62 102.395 622.796 102.462C622.971 102.529 623.166 102.562 623.38 102.562C623.541 102.562 623.689 102.55 623.821 102.526C623.959 102.502 624.064 102.481 624.135 102.462L624.569 104.489C624.432 104.537 624.235 104.589 623.978 104.646C623.726 104.704 623.418 104.737 623.052 104.747C622.406 104.766 621.825 104.668 621.307 104.453C620.79 104.233 620.379 103.894 620.075 103.436C619.776 102.978 619.629 102.405 619.633 101.717V90.9593Z" fill="black"/>
<path d="M626.326 104.596V93.595H628.904V104.596H626.326ZM627.622 92.0336C627.214 92.0336 626.862 91.8975 626.568 91.6253C626.273 91.3484 626.126 91.0165 626.126 90.6298C626.126 90.2382 626.273 89.9064 626.568 89.6342C626.862 89.3573 627.214 89.2188 627.622 89.2188C628.035 89.2188 628.387 89.3573 628.676 89.6342C628.971 89.9064 629.118 90.2382 629.118 90.6298C629.118 91.0165 628.971 91.3484 628.676 91.6253C628.387 91.8975 628.035 92.0336 627.622 92.0336Z" fill="black"/>
<path d="M636.127 104.811C635.059 104.811 634.133 104.575 633.349 104.102C632.566 103.629 631.958 102.968 631.526 102.118C631.099 101.268 630.885 100.275 630.885 99.1386C630.885 98.0022 631.099 97.0066 631.526 96.1519C631.958 95.2972 632.566 94.6335 633.349 94.1608C634.133 93.6881 635.059 93.4517 636.127 93.4517C637.196 93.4517 638.121 93.6881 638.905 94.1608C639.688 94.6335 640.294 95.2972 640.721 96.1519C641.153 97.0066 641.369 98.0022 641.369 99.1386C641.369 100.275 641.153 101.268 640.721 102.118C640.294 102.968 639.688 103.629 638.905 104.102C638.121 104.575 637.196 104.811 636.127 104.811ZM636.141 102.734C636.721 102.734 637.205 102.574 637.594 102.254C637.984 101.929 638.273 101.495 638.463 100.951C638.658 100.406 638.755 99.7999 638.755 99.1314C638.755 98.4582 638.658 97.8494 638.463 97.305C638.273 96.7559 637.984 96.319 637.594 95.9943C637.205 95.6697 636.721 95.5073 636.141 95.5073C635.548 95.5073 635.054 95.6697 634.66 95.9943C634.271 96.319 633.978 96.7559 633.784 97.305C633.594 97.8494 633.499 98.4582 633.499 99.1314C633.499 99.7999 633.594 100.406 633.784 100.951C633.978 101.495 634.271 101.929 634.66 102.254C635.054 102.574 635.548 102.734 636.141 102.734Z" fill="black"/>
<path d="M645.936 98.1502V104.596H643.357V93.595H645.822V95.4643H645.95C646.202 94.8484 646.603 94.359 647.154 93.9961C647.709 93.6332 648.395 93.4517 649.212 93.4517C649.967 93.4517 650.625 93.6141 651.185 93.9388C651.75 94.2635 652.187 94.7338 652.496 95.3497C652.809 95.9657 652.963 96.713 652.959 97.5915V104.596H650.38V97.9926C650.38 97.2573 650.19 96.6819 649.81 96.2665C649.435 95.8511 648.915 95.6434 648.251 95.6434C647.799 95.6434 647.398 95.7437 647.047 95.9442C646.7 96.14 646.427 96.4241 646.228 96.7965C646.033 97.169 645.936 97.6202 645.936 98.1502Z" fill="black"/>
<path d="M428.34 85.9418C428.811 86.6376 429.327 87.1271 429.887 87.4102C430.455 87.6853 431.093 87.8228 431.799 87.8228C432.522 87.8228 433.151 87.6934 433.687 87.4345C434.231 87.1756 434.682 86.8075 435.039 86.3302C435.404 85.8448 435.676 85.2582 435.855 84.5705C436.034 83.8829 436.123 83.1102 436.123 82.2527C436.123 80.586 435.79 79.332 435.124 78.4907C434.458 77.6493 433.525 77.2286 432.323 77.2286C431.462 77.2286 430.711 77.4349 430.07 77.8475C429.428 78.2601 428.852 78.8345 428.34 79.5707V85.9418ZM428.34 78.5999C428.868 77.8879 429.485 77.3297 430.191 76.9252C430.898 76.5126 431.718 76.3063 432.652 76.3063C433.383 76.3063 434.036 76.4398 434.613 76.7067C435.189 76.9737 435.676 77.358 436.074 77.8596C436.48 78.3612 436.789 78.9801 437 79.7163C437.211 80.4445 437.317 81.2737 437.317 82.2041C437.317 83.183 437.199 84.077 436.963 84.8861C436.728 85.687 436.383 86.3747 435.928 86.9491C435.482 87.5154 434.933 87.9563 434.284 88.2719C433.634 88.5793 432.891 88.733 432.055 88.733C431.194 88.733 430.459 88.5712 429.85 88.2476C429.249 87.9159 428.73 87.4264 428.291 86.7792L428.206 88.2719C428.182 88.4741 428.072 88.5752 427.877 88.5752H427.171V70.9181H428.34V78.5999Z" fill="black"/>
<path d="M449.851 76.5004L442.884 92.4586C442.836 92.5719 442.771 92.6649 442.689 92.7377C442.616 92.8105 442.507 92.8469 442.361 92.8469H441.532L443.664 88.1262L438.536 76.5004H439.498C439.62 76.5004 439.718 76.5328 439.791 76.5975C439.864 76.6542 439.912 76.7189 439.937 76.7917L444.017 86.1846C444.066 86.3059 444.106 86.4313 444.139 86.5608C444.179 86.6821 444.216 86.8075 444.248 86.937C444.289 86.8075 444.33 86.6821 444.37 86.5608C444.419 86.4313 444.468 86.3059 444.516 86.1846L448.548 76.7917C448.589 76.7027 448.645 76.6339 448.718 76.5854C448.792 76.5288 448.873 76.5004 448.962 76.5004H449.851Z" fill="black"/>
</svg>
